<svg width="168" height="136" viewBox="0 0 168 136" fill="none" xmlns="http://www.w3.org/2000/svg">
<path d="M22.199 90.3429C18.231 90.3429 14.743 89.9269 11.735 89.0949C8.72697 88.2629 6.58297 87.3349 5.30297 86.3109C2.10297 83.8149 0.502971 80.9349 0.502971 77.6709C0.502971 74.9189 1.68697 72.1669 4.05497 69.4149C6.48697 66.5989 10.167 64.0389 15.095 61.7349C20.023 59.3669 26.231 57.5109 33.719 56.1669C36.919 55.5909 40.151 55.1429 43.415 54.8229C46.743 54.5029 50.071 54.3429 53.399 54.3429C56.215 54.3429 59.031 54.4709 61.847 54.7269C64.727 54.9829 67.543 55.3989 70.295 55.9749C71.191 56.1669 72.215 56.4229 73.367 56.7429C74.519 56.9989 75.703 57.3189 76.919 57.7029C82.231 52.2629 87.415 46.8549 92.471 41.4789C97.527 36.1029 102.423 31.5589 107.159 27.8469C110.487 25.2229 113.591 23.4309 116.471 22.4709C119.351 21.5109 121.911 21.0309 124.151 21.0309C126.775 21.0309 128.919 21.4469 130.583 22.2789C132.311 23.0469 133.431 23.6869 133.943 24.1989C134.135 24.3909 134.135 24.5829 133.943 24.7749C133.751 24.9669 133.559 24.9669 133.367 24.7749C133.047 24.3909 132.279 23.9749 131.063 23.5269C129.847 23.0789 128.279 22.8549 126.359 22.8549C123.991 22.8549 121.207 23.3989 118.007 24.4869C114.807 25.5749 111.255 27.6229 107.351 30.6309C102.551 34.4069 97.783 38.7589 93.047 43.6869C88.375 48.5509 83.607 53.4469 78.743 58.3749C81.239 59.2709 83.511 60.4869 85.559 62.0229C87.671 63.5589 88.887 65.4469 89.207 67.6869V68.0709C89.207 68.3269 89.143 68.4549 89.015 68.4549C88.823 68.4549 88.631 68.2629 88.439 67.8789C88.183 67.1749 87.447 66.5669 86.231 66.0549C85.079 65.5429 83.735 65.1269 82.199 64.8069C80.663 64.4869 79.191 64.2309 77.783 64.0389C76.375 63.8469 75.319 63.7189 74.615 63.6549L73.559 63.5589C68.247 68.6789 62.743 73.4149 57.047 77.7669C51.415 82.0549 45.431 85.2869 39.095 87.4629C36.087 88.4869 33.143 89.2229 30.263 89.6709C27.447 90.1189 24.759 90.3429 22.199 90.3429ZM96.407 95.0469C93.527 92.9989 91.415 90.5349 90.071 87.6549C88.727 84.7749 88.055 81.6709 88.055 78.3429C88.055 75.0149 88.631 71.6869 89.783 68.3589C90.935 64.9669 92.599 61.4469 94.775 57.7989C97.015 54.1509 99.447 50.5989 102.071 47.1429C104.695 43.6229 107.223 40.4229 109.655 37.5429C112.151 34.5989 114.231 32.1669 115.895 30.2469C117.623 28.3269 118.647 27.1429 118.967 26.6949C119.351 26.1829 119.639 25.9269 119.831 25.9269C120.087 25.9269 120.279 26.1509 120.407 26.5989C120.535 26.9829 120.599 27.4309 120.599 27.9429C120.599 28.9669 120.439 29.7029 120.119 30.1509C118.455 32.2629 116.471 34.9509 114.167 38.2149C111.863 41.4789 109.527 45.1269 107.159 49.1589C104.791 53.1269 102.583 57.2229 100.535 61.4469C98.487 65.6709 96.823 69.7989 95.543 73.8309C94.327 77.8629 93.719 81.5429 93.719 84.8709C93.719 86.7909 93.975 88.5509 94.487 90.1509C94.999 91.7509 95.831 93.1589 96.983 94.3749C97.047 94.4389 97.079 94.5349 97.079 94.6629C97.079 94.7909 97.015 94.9189 96.887 95.0469C96.759 95.1749 96.599 95.1749 96.407 95.0469ZM22.487 88.7109C24.855 88.7109 27.415 88.4869 30.167 88.0389C32.919 87.6549 35.767 87.0149 38.711 86.1189C44.215 84.3909 49.687 81.4469 55.127 77.2869C60.567 73.1269 65.911 68.4869 71.159 63.3669C70.327 63.3029 69.495 63.2709 68.663 63.2709C67.831 63.2709 66.967 63.2709 66.071 63.2709C61.591 63.2709 56.919 63.4949 52.055 63.9429C47.255 64.3909 42.679 65.0309 38.327 65.8629C31.287 67.0789 25.527 68.6149 21.047 70.4709C16.631 72.2629 13.367 74.1509 11.255 76.1349C9.20697 78.1189 8.18297 80.0069 8.18297 81.7989C8.18297 83.5269 9.04697 85.0309 10.775 86.3109C11.671 86.9509 13.143 87.4949 15.191 87.9429C17.239 88.4549 19.671 88.7109 22.487 88.7109Z" fill="white"/>
<path d="M55.8413 105.453C51.8733 105.453 48.3853 105.037 45.3773 104.205C42.3693 103.373 40.2253 102.445 38.9453 101.421C35.7453 98.925 34.1453 96.045 34.1453 92.781C34.1453 90.029 35.3293 87.277 37.6973 84.525C40.1293 81.709 43.8093 79.149 48.7373 76.845C53.6653 74.477 59.8733 72.621 67.3613 71.277C70.5613 70.701 73.7933 70.253 77.0573 69.933C80.3853 69.613 83.7133 69.453 87.0413 69.453C89.8573 69.453 92.6733 69.581 95.4893 69.837C98.3693 70.093 101.185 70.509 103.937 71.085C104.833 71.277 105.857 71.533 107.009 71.853C108.161 72.109 109.345 72.429 110.561 72.813C115.873 67.373 121.057 61.965 126.113 56.589C131.169 51.213 136.065 46.669 140.801 42.957C144.129 40.333 147.233 38.541 150.113 37.581C152.993 36.621 155.553 36.141 157.793 36.141C160.417 36.141 162.561 36.557 164.225 37.389C165.953 38.157 167.073 38.797 167.585 39.309C167.777 39.501 167.777 39.693 167.585 39.885C167.393 40.077 167.201 40.077 167.009 39.885C166.689 39.501 165.921 39.085 164.705 38.637C163.489 38.189 161.921 37.965 160.001 37.965C157.633 37.965 154.849 38.509 151.649 39.597C148.449 40.685 144.897 42.733 140.993 45.741C136.193 49.517 131.425 53.869 126.689 58.797C122.017 63.661 117.249 68.557 112.385 73.485C114.881 74.381 117.153 75.597 119.201 77.133C121.313 78.669 122.529 80.557 122.849 82.797V83.181C122.849 83.437 122.785 83.565 122.657 83.565C122.465 83.565 122.273 83.373 122.081 82.989C121.825 82.285 121.089 81.677 119.873 81.165C118.721 80.653 117.377 80.237 115.841 79.917C114.305 79.597 112.833 79.341 111.425 79.149C110.017 78.957 108.961 78.829 108.257 78.765L107.201 78.669C101.889 83.789 96.3853 88.525 90.6893 92.877C85.0573 97.165 79.0733 100.397 72.7373 102.573C69.7293 103.597 66.7853 104.333 63.9053 104.781C61.0893 105.229 58.4013 105.453 55.8413 105.453ZM130.049 110.157C127.169 108.109 125.057 105.645 123.713 102.765C122.369 99.885 121.697 96.781 121.697 93.453C121.697 90.125 122.273 86.797 123.425 83.469C124.577 80.077 126.241 76.557 128.417 72.909C130.657 69.261 133.089 65.709 135.713 62.253C138.337 58.733 140.865 55.533 143.297 52.653C145.793 49.709 147.873 47.277 149.537 45.357C151.265 43.437 152.289 42.253 152.609 41.805C152.993 41.293 153.281 41.037 153.473 41.037C153.729 41.037 153.921 41.261 154.049 41.709C154.177 42.093 154.241 42.541 154.241 43.053C154.241 44.077 154.081 44.813 153.761 45.261C152.097 47.373 150.113 50.061 147.809 53.325C145.505 56.589 143.169 60.237 140.801 64.269C138.433 68.237 136.225 72.333 134.177 76.557C132.129 80.781 130.465 84.909 129.185 88.941C127.969 92.973 127.361 96.653 127.361 99.981C127.361 101.901 127.617 103.661 128.129 105.261C128.641 106.861 129.473 108.269 130.625 109.485C130.689 109.549 130.721 109.645 130.721 109.773C130.721 109.901 130.657 110.029 130.529 110.157C130.401 110.285 130.241 110.285 130.049 110.157ZM56.1293 103.821C58.4973 103.821 61.0573 103.597 63.8093 103.149C66.5613 102.765 69.4093 102.125 72.3533 101.229C77.8573 99.501 83.3293 96.557 88.7693 92.397C94.2093 88.237 99.5533 83.597 104.801 78.477C103.969 78.413 103.137 78.381 102.305 78.381C101.473 78.381 100.609 78.381 99.7133 78.381C95.2333 78.381 90.5613 78.605 85.6973 79.053C80.8973 79.501 76.3213 80.141 71.9693 80.973C64.9293 82.189 59.1693 83.725 54.6893 85.581C50.2733 87.373 47.0093 89.261 44.8973 91.245C42.8493 93.229 41.8253 95.117 41.8253 96.909C41.8253 98.637 42.6893 100.141 44.4173 101.421C45.3133 102.061 46.7853 102.605 48.8333 103.053C50.8813 103.565 53.3133 103.821 56.1293 103.821Z" fill="#085701"/>
</svg>
