<svg width="645" height="535" viewBox="0 0 645 535" fill="none" xmlns="http://www.w3.org/2000/svg">
<circle cx="419.552" cy="241.907" r="90" stroke="#01482A" stroke-width="10"/>
<circle cx="300.54" cy="261.907" r="70" stroke="#01482A" stroke-width="10"/>
<path d="M158.241 234.834C157.968 234.836 157.698 234.78 157.445 234.67C157.193 234.561 156.963 234.399 156.77 234.194L140.667 217.031C138.648 214.859 137.515 211.926 137.515 208.869C137.515 205.812 138.648 202.879 140.667 200.707C142.703 198.546 145.46 197.333 148.335 197.333C151.21 197.333 153.967 198.546 156.003 200.707L158.241 203.089L160.479 200.707C162.515 198.546 165.272 197.333 168.147 197.333C171.021 197.333 173.779 198.546 175.814 200.707C177.834 202.879 178.967 205.812 178.967 208.869C178.967 211.926 177.834 214.859 175.814 217.031L159.712 234.194C159.519 234.399 159.289 234.561 159.037 234.67C158.784 234.78 158.514 234.836 158.241 234.834ZM148.335 201.744C147.458 201.739 146.589 201.92 145.777 202.276C144.966 202.632 144.23 203.156 143.61 203.817C142.359 205.157 141.656 206.969 141.656 208.858C141.656 210.747 142.359 212.56 143.61 213.899L158.241 229.496L172.872 213.899C174.123 212.56 174.826 210.747 174.826 208.858C174.826 206.969 174.123 205.157 172.872 203.817C171.594 202.533 169.904 201.817 168.147 201.817C166.39 201.817 164.699 202.533 163.422 203.817L159.712 207.788C159.52 207.995 159.29 208.159 159.038 208.271C158.785 208.383 158.514 208.441 158.241 208.441C157.967 208.441 157.696 208.383 157.444 208.271C157.191 208.159 156.962 207.995 156.77 207.788L153.06 203.817C152.44 203.156 151.704 202.632 150.893 202.276C150.082 201.92 149.212 201.739 148.335 201.744Z" fill="white"/>
<path d="M577.73 208.362C577.457 208.363 577.187 208.308 576.935 208.198C576.682 208.088 576.452 207.926 576.259 207.722L560.157 190.559C558.137 188.386 557.004 185.453 557.004 182.396C557.004 179.34 558.137 176.407 560.157 174.234C562.192 172.073 564.95 170.86 567.824 170.86C570.699 170.86 573.456 172.073 575.492 174.234L577.73 176.617L579.968 174.234C582.004 172.073 584.761 170.86 587.636 170.86C590.511 170.86 593.268 172.073 595.304 174.234C597.323 176.407 598.456 179.34 598.456 182.396C598.456 185.453 597.323 188.386 595.304 190.559L579.201 207.722C579.008 207.926 578.778 208.088 578.526 208.198C578.273 208.308 578.003 208.363 577.73 208.362ZM567.824 175.271C566.947 175.267 566.078 175.448 565.267 175.804C564.456 176.16 563.719 176.683 563.099 177.345C561.848 178.684 561.145 180.496 561.145 182.385C561.145 184.275 561.848 186.087 563.099 187.426L577.73 203.023L592.361 187.426C593.612 186.087 594.315 184.275 594.315 182.385C594.315 180.496 593.612 178.684 592.361 177.345C591.084 176.06 589.393 175.344 587.636 175.344C585.879 175.344 584.188 176.06 582.911 177.345L579.201 181.315C579.009 181.522 578.78 181.686 578.527 181.798C578.275 181.91 578.004 181.968 577.73 181.968C577.457 181.968 577.186 181.91 576.933 181.798C576.681 181.686 576.451 181.522 576.259 181.315L572.549 177.345C571.93 176.683 571.193 176.16 570.382 175.804C569.571 175.448 568.702 175.267 567.824 175.271Z" fill="white"/>
<path d="M331.422 422.973C331.149 422.975 330.879 422.919 330.626 422.81C330.374 422.7 330.144 422.538 329.95 422.334L313.848 405.171C311.829 402.998 310.696 400.065 310.696 397.008C310.696 393.952 311.829 391.018 313.848 388.846C315.884 386.685 318.641 385.472 321.516 385.472C324.391 385.472 327.148 386.685 329.184 388.846L331.422 391.228L333.66 388.846C335.696 386.685 338.453 385.472 341.328 385.472C344.202 385.472 346.96 386.685 348.995 388.846C351.015 391.018 352.148 393.952 352.148 397.008C352.148 400.065 351.015 402.998 348.995 405.171L332.893 422.334C332.7 422.538 332.47 422.7 332.217 422.81C331.965 422.919 331.695 422.975 331.422 422.973ZM321.516 389.883C320.639 389.879 319.769 390.06 318.958 390.416C318.147 390.772 317.411 391.295 316.791 391.956C315.54 393.296 314.837 395.108 314.837 396.997C314.837 398.886 315.54 400.699 316.791 402.038L331.422 417.635L346.053 402.038C347.304 400.699 348.007 398.886 348.007 396.997C348.007 395.108 347.304 393.296 346.053 391.956C344.775 390.672 343.085 389.956 341.328 389.956C339.571 389.956 337.88 390.672 336.603 391.956L332.893 395.927C332.701 396.134 332.471 396.298 332.219 396.41C331.966 396.522 331.695 396.58 331.422 396.58C331.148 396.58 330.877 396.522 330.625 396.41C330.372 396.298 330.143 396.134 329.95 395.927L326.241 391.956C325.621 391.295 324.885 390.772 324.074 390.416C323.263 390.06 322.393 389.879 321.516 389.883Z" fill="white"/>
<path d="M453.87 47.0344C453.597 47.0361 453.327 46.9805 453.074 46.8707C452.822 46.7609 452.592 46.5991 452.398 46.3947L436.296 29.2317C434.277 27.0591 433.144 24.1259 433.144 21.0693C433.144 18.0127 434.277 15.0795 436.296 12.9069C438.332 10.7461 441.089 9.53271 443.964 9.53271C446.839 9.53271 449.596 10.7461 451.632 12.9069L453.87 15.2895L456.108 12.9069C458.143 10.7461 460.901 9.53271 463.776 9.53271C466.65 9.53271 469.408 10.7461 471.443 12.9069C473.463 15.0795 474.596 18.0127 474.596 21.0693C474.596 24.1259 473.463 27.0591 471.443 29.2317L455.341 46.3947C455.147 46.5991 454.918 46.7609 454.665 46.8707C454.413 46.9805 454.142 47.0361 453.87 47.0344ZM443.964 13.9438C443.087 13.9395 442.217 14.1206 441.406 14.4766C440.595 14.8326 439.859 15.3563 439.239 16.0174C437.987 17.3568 437.285 19.1691 437.285 21.0583C437.285 22.9474 437.987 24.7597 439.239 26.0991L453.87 41.6958L468.501 26.0991C469.752 24.7597 470.455 22.9474 470.455 21.0583C470.455 19.1691 469.752 17.3568 468.501 16.0174C467.223 14.7329 465.533 14.0172 463.776 14.0172C462.018 14.0172 460.328 14.7329 459.051 16.0174L455.341 19.9883C455.148 20.1951 454.919 20.3592 454.667 20.4712C454.414 20.5832 454.143 20.6409 453.87 20.6409C453.596 20.6409 453.325 20.5832 453.073 20.4712C452.82 20.3592 452.591 20.1951 452.398 19.9883L448.689 16.0174C448.069 15.3563 447.333 14.8326 446.522 14.4766C445.711 14.1206 444.841 13.9395 443.964 13.9438Z" fill="white"/>
<path d="M133.373 339.671C133.1 339.672 132.83 339.617 132.577 339.507C132.325 339.397 132.095 339.235 131.901 339.031L115.799 321.868C113.78 319.695 112.647 316.762 112.647 313.706C112.647 310.649 113.78 307.716 115.799 305.543C117.835 303.382 120.592 302.169 123.467 302.169C126.342 302.169 129.099 303.382 131.135 305.543L133.373 307.926L135.611 305.543C137.647 303.382 140.404 302.169 143.279 302.169C146.153 302.169 148.911 303.382 150.946 305.543C152.966 307.716 154.099 310.649 154.099 313.706C154.099 316.762 152.966 319.695 150.946 321.868L134.844 339.031C134.651 339.235 134.421 339.397 134.168 339.507C133.916 339.617 133.646 339.672 133.373 339.671ZM123.467 306.58C122.59 306.576 121.72 306.757 120.909 307.113C120.098 307.469 119.362 307.993 118.742 308.654C117.49 309.993 116.788 311.805 116.788 313.694C116.788 315.584 117.49 317.396 118.742 318.735L133.373 334.332L148.004 318.735C149.255 317.396 149.958 315.584 149.958 313.694C149.958 311.805 149.255 309.993 148.004 308.654C146.726 307.369 145.036 306.653 143.279 306.653C141.521 306.653 139.831 307.369 138.554 308.654L134.844 312.625C134.652 312.831 134.422 312.995 134.17 313.107C133.917 313.219 133.646 313.277 133.373 313.277C133.099 313.277 132.828 313.219 132.576 313.107C132.323 312.995 132.094 312.831 131.901 312.625L128.192 308.654C127.572 307.993 126.836 307.469 126.025 307.113C125.214 306.757 124.344 306.576 123.467 306.58Z" fill="white"/>
<path d="M511.997 396.501C511.724 396.503 511.454 396.448 511.201 396.338C510.949 396.228 510.719 396.066 510.525 395.862L494.423 378.699C492.404 376.526 491.271 373.593 491.271 370.536C491.271 367.48 492.404 364.547 494.423 362.374C496.459 360.213 499.216 359 502.091 359C504.966 359 507.723 360.213 509.759 362.374L511.997 364.756L514.235 362.374C516.271 360.213 519.028 359 521.903 359C524.777 359 527.535 360.213 529.57 362.374C531.59 364.547 532.723 367.48 532.723 370.536C532.723 373.593 531.59 376.526 529.57 378.699L513.468 395.862C513.275 396.066 513.045 396.228 512.792 396.338C512.54 396.448 512.27 396.503 511.997 396.501ZM502.091 363.411C501.214 363.407 500.344 363.588 499.533 363.944C498.722 364.3 497.986 364.823 497.366 365.484C496.115 366.824 495.412 368.636 495.412 370.525C495.412 372.414 496.115 374.227 497.366 375.566L511.997 391.163L526.628 375.566C527.879 374.227 528.582 372.414 528.582 370.525C528.582 368.636 527.879 366.824 526.628 365.484C525.35 364.2 523.66 363.484 521.903 363.484C520.146 363.484 518.455 364.2 517.178 365.484L513.468 369.455C513.276 369.662 513.046 369.826 512.794 369.938C512.541 370.05 512.27 370.108 511.997 370.108C511.723 370.108 511.452 370.05 511.2 369.938C510.947 369.826 510.718 369.662 510.525 369.455L506.816 365.484C506.196 364.823 505.46 364.3 504.649 363.944C503.838 363.588 502.968 363.407 502.091 363.411Z" fill="white"/>
<path d="M361.803 146.882C361.531 146.883 361.26 146.828 361.008 146.718C360.755 146.608 360.526 146.446 360.332 146.242L344.23 129.079C342.21 126.906 341.077 123.973 341.077 120.917C341.077 117.86 342.21 114.927 344.23 112.754C346.265 110.593 349.023 109.38 351.898 109.38C354.772 109.38 357.53 110.593 359.565 112.754L361.803 115.137L364.041 112.754C366.077 110.593 368.834 109.38 371.709 109.38C374.584 109.38 377.341 110.593 379.377 112.754C381.397 114.927 382.53 117.86 382.53 120.917C382.53 123.973 381.397 126.906 379.377 129.079L363.275 146.242C363.081 146.446 362.851 146.608 362.599 146.718C362.346 146.828 362.076 146.883 361.803 146.882ZM351.898 113.791C351.02 113.787 350.151 113.968 349.34 114.324C348.529 114.68 347.792 115.204 347.173 115.865C345.921 117.204 345.218 119.016 345.218 120.906C345.218 122.795 345.921 124.607 347.173 125.946L361.803 141.543L376.434 125.946C377.686 124.607 378.388 122.795 378.388 120.906C378.388 119.016 377.686 117.204 376.434 115.865C375.157 114.58 373.466 113.865 371.709 113.865C369.952 113.865 368.261 114.58 366.984 115.865L363.275 119.836C363.082 120.042 362.853 120.207 362.6 120.319C362.348 120.43 362.077 120.488 361.803 120.488C361.53 120.488 361.259 120.43 361.006 120.319C360.754 120.207 360.525 120.042 360.332 119.836L356.622 115.865C356.003 115.204 355.266 114.68 354.455 114.324C353.644 113.968 352.775 113.787 351.898 113.791Z" fill="white"/>
<path d="M54.5122 294.855C53.9201 294.859 53.3331 294.742 52.7849 294.511C52.2367 294.279 51.7381 293.939 51.3177 293.508L16.3576 257.379C11.9723 252.805 9.5125 246.631 9.5125 240.196C9.5125 233.762 11.9723 227.587 16.3576 223.013C20.7771 218.465 26.7639 215.91 33.0052 215.91C39.2466 215.91 45.2334 218.465 49.6529 223.013L54.5122 228.029L59.3716 223.013C63.7911 218.465 69.7778 215.91 76.0192 215.91C82.2606 215.91 88.2473 218.465 92.6669 223.013C97.0522 227.587 99.512 233.762 99.512 240.196C99.512 246.631 97.0522 252.805 92.6669 257.379L57.7068 293.508C57.2864 293.939 56.7878 294.279 56.2396 294.511C55.6914 294.742 55.1044 294.859 54.5122 294.855ZM33.0052 225.196C31.1005 225.187 29.2131 225.568 27.4522 226.318C25.6912 227.067 24.0919 228.17 22.7467 229.561C20.0293 232.381 18.5039 236.196 18.5039 240.173C18.5039 244.15 20.0293 247.965 22.7467 250.784L54.5122 283.617L86.2778 250.784C88.9951 247.965 90.5205 244.15 90.5205 240.173C90.5205 236.196 88.9951 232.381 86.2778 229.561C83.5047 226.857 79.8342 225.351 76.0192 225.351C72.2042 225.351 68.5338 226.857 65.7607 229.561L57.7068 237.92C57.2885 238.356 56.7909 238.701 56.2426 238.937C55.6943 239.173 55.1062 239.294 54.5122 239.294C53.9183 239.294 53.3302 239.173 52.7819 238.937C52.2336 238.701 51.736 238.356 51.3177 237.92L43.2638 229.561C41.9186 228.17 40.3193 227.067 38.5583 226.318C36.7974 225.568 34.9099 225.187 33.0052 225.196Z" fill="white"/>
<path d="M507.862 151.175C507.27 151.179 506.683 151.062 506.135 150.831C505.587 150.599 505.088 150.259 504.668 149.829L469.708 113.699C465.322 109.125 462.863 102.951 462.863 96.5161C462.863 90.0816 465.322 83.907 469.708 79.3335C474.127 74.7848 480.114 72.2305 486.355 72.2305C492.597 72.2305 498.583 74.7848 503.003 79.3335L507.862 84.349L512.722 79.3335C517.141 74.7848 523.128 72.2305 529.369 72.2305C535.611 72.2305 541.597 74.7848 546.017 79.3335C550.402 83.907 552.862 90.0816 552.862 96.5161C552.862 102.951 550.402 109.125 546.017 113.699L511.057 149.829C510.636 150.259 510.138 150.599 509.59 150.831C509.041 151.062 508.454 151.179 507.862 151.175ZM486.355 81.5162C484.451 81.5073 482.563 81.8885 480.802 82.6378C479.041 83.3872 477.442 84.4897 476.097 85.8815C473.379 88.7009 471.854 92.516 471.854 96.4929C471.854 100.47 473.379 104.285 476.097 107.104L507.862 139.937L539.628 107.104C542.345 104.285 543.871 100.47 543.871 96.4929C543.871 92.516 542.345 88.7009 539.628 85.8815C536.855 83.1773 533.184 81.6708 529.369 81.6708C525.554 81.6708 521.884 83.1773 519.111 85.8815L511.057 94.2406C510.639 94.6758 510.141 95.0213 509.593 95.2571C509.044 95.4928 508.456 95.6142 507.862 95.6142C507.268 95.6142 506.68 95.4928 506.132 95.2571C505.584 95.0213 505.086 94.6758 504.668 94.2406L496.614 85.8815C495.269 84.4897 493.669 83.3872 491.908 82.6378C490.147 81.8885 488.26 81.5073 486.355 81.5162Z" fill="white"/>
<path d="M491.865 520.496C491.273 520.5 490.686 520.382 490.138 520.151C489.59 519.92 489.091 519.58 488.671 519.149L453.711 483.019C449.325 478.446 446.865 472.271 446.865 465.837C446.865 459.402 449.325 453.228 453.711 448.654C458.13 444.106 464.117 441.551 470.358 441.551C476.6 441.551 482.586 444.106 487.006 448.654L491.865 453.67L496.725 448.654C501.144 444.106 507.131 441.551 513.372 441.551C519.614 441.551 525.6 444.106 530.02 448.654C534.405 453.228 536.865 459.402 536.865 465.837C536.865 472.271 534.405 478.446 530.02 483.019L495.06 519.149C494.639 519.58 494.141 519.92 493.593 520.151C493.044 520.382 492.457 520.5 491.865 520.496ZM470.358 450.837C468.454 450.828 466.566 451.209 464.805 451.959C463.044 452.708 461.445 453.81 460.1 455.202C457.382 458.022 455.857 461.837 455.857 465.814C455.857 469.791 457.382 473.606 460.1 476.425L491.865 509.258L523.631 476.425C526.348 473.606 527.874 469.791 527.874 465.814C527.874 461.837 526.348 458.022 523.631 455.202C520.858 452.498 517.187 450.992 513.372 450.992C509.557 450.992 505.887 452.498 503.114 455.202L495.06 463.561C494.641 463.997 494.144 464.342 493.596 464.578C493.047 464.814 492.459 464.935 491.865 464.935C491.271 464.935 490.683 464.814 490.135 464.578C489.587 464.342 489.089 463.997 488.671 463.561L480.617 455.202C479.272 453.81 477.672 452.708 475.911 451.959C474.15 451.209 472.263 450.828 470.358 450.837Z" fill="white"/>
<path d="M178.967 482.994C178.375 482.998 177.788 482.881 177.24 482.65C176.692 482.419 176.193 482.078 175.773 481.648L140.812 445.518C136.427 440.944 133.967 434.77 133.967 428.335C133.967 421.901 136.427 415.726 140.812 411.153C145.232 406.604 151.219 404.05 157.46 404.05C163.702 404.05 169.688 406.604 174.108 411.153L178.967 416.168L183.826 411.153C188.246 406.604 194.233 404.05 200.474 404.05C206.716 404.05 212.702 406.604 217.122 411.153C221.507 415.726 223.967 421.901 223.967 428.335C223.967 434.77 221.507 440.944 217.122 445.518L182.162 481.648C181.741 482.078 181.243 482.419 180.694 482.65C180.146 482.881 179.559 482.998 178.967 482.994ZM157.46 413.335C155.555 413.326 153.668 413.708 151.907 414.457C150.146 415.206 148.547 416.309 147.202 417.701C144.484 420.52 142.959 424.335 142.959 428.312C142.959 432.289 144.484 436.104 147.202 438.923L178.967 471.756L210.733 438.923C213.45 436.104 214.975 432.289 214.975 428.312C214.975 424.335 213.45 420.52 210.733 417.701C207.96 414.996 204.289 413.49 200.474 413.49C196.659 413.49 192.989 414.996 190.216 417.701L182.162 426.06C181.743 426.495 181.246 426.84 180.698 427.076C180.149 427.312 179.561 427.433 178.967 427.433C178.373 427.433 177.785 427.312 177.237 427.076C176.689 426.84 176.191 426.495 175.773 426.06L167.719 417.701C166.374 416.309 164.774 415.206 163.013 414.457C161.252 413.708 159.365 413.326 157.46 413.335Z" fill="white"/>
<path d="M240.434 122.068C239.842 122.072 239.255 121.955 238.707 121.724C238.158 121.493 237.66 121.152 237.239 120.722L202.279 84.5917C197.894 80.0183 195.434 73.8437 195.434 67.4092C195.434 60.9747 197.894 54.8 202.279 50.2266C206.699 45.6779 212.686 43.1235 218.927 43.1235C225.168 43.1235 231.155 45.6779 235.575 50.2266L240.434 55.242L245.293 50.2266C249.713 45.6779 255.7 43.1235 261.941 43.1235C268.182 43.1235 274.169 45.6779 278.589 50.2266C282.974 54.8 285.434 60.9747 285.434 67.4092C285.434 73.8437 282.974 80.0183 278.589 84.5917L243.629 120.722C243.208 121.152 242.71 121.493 242.161 121.724C241.613 121.955 241.026 122.072 240.434 122.068ZM218.927 52.4092C217.022 52.4003 215.135 52.7816 213.374 53.5309C211.613 54.2802 210.014 55.3827 208.668 56.7745C205.951 59.594 204.426 63.4091 204.426 67.3859C204.426 71.3628 205.951 75.1779 208.668 77.9973L240.434 110.83L272.2 77.9973C274.917 75.1779 276.442 71.3628 276.442 67.3859C276.442 63.4091 274.917 59.594 272.2 56.7745C269.426 54.0704 265.756 52.5639 261.941 52.5639C258.126 52.5639 254.456 54.0704 251.682 56.7745L243.629 65.1336C243.21 65.5689 242.713 65.9144 242.164 66.1501C241.616 66.3859 241.028 66.5073 240.434 66.5073C239.84 66.5073 239.252 66.3859 238.704 66.1501C238.155 65.9144 237.658 65.5689 237.239 65.1336L229.186 56.7745C227.84 55.3827 226.241 54.2802 224.48 53.5309C222.719 52.7816 220.832 52.4003 218.927 52.4092Z" fill="white"/>
<path d="M590.857 362.715C590.265 362.719 589.678 362.601 589.13 362.37C588.582 362.139 588.083 361.799 587.663 361.368L552.703 325.238C548.318 320.665 545.858 314.49 545.858 308.056C545.858 301.621 548.318 295.447 552.703 290.873C557.122 286.325 563.109 283.77 569.35 283.77C575.592 283.77 581.579 286.325 585.998 290.873L590.857 295.889L595.717 290.873C600.136 286.325 606.123 283.77 612.364 283.77C618.606 283.77 624.593 286.325 629.012 290.873C633.397 295.447 635.857 301.621 635.857 308.056C635.857 314.49 633.397 320.665 629.012 325.238L594.052 361.368C593.632 361.799 593.133 362.139 592.585 362.37C592.037 362.601 591.45 362.719 590.857 362.715ZM569.35 293.056C567.446 293.047 565.558 293.428 563.797 294.178C562.036 294.927 560.437 296.029 559.092 297.421C556.375 300.241 554.849 304.056 554.849 308.033C554.849 312.01 556.375 315.825 559.092 318.644L590.857 351.477L622.623 318.644C625.34 315.825 626.866 312.01 626.866 308.033C626.866 304.056 625.34 300.241 622.623 297.421C619.85 294.717 616.179 293.211 612.364 293.211C608.549 293.211 604.879 294.717 602.106 297.421L594.052 305.78C593.634 306.216 593.136 306.561 592.588 306.797C592.04 307.033 591.451 307.154 590.857 307.154C590.263 307.154 589.675 307.033 589.127 306.797C588.579 306.561 588.081 306.216 587.663 305.78L579.609 297.421C578.264 296.029 576.664 294.927 574.904 294.178C573.143 293.428 571.255 293.047 569.35 293.056Z" fill="white"/>
</svg>
