<svg width="128" height="116" viewBox="0 0 128 116" fill="none" xmlns="http://www.w3.org/2000/svg">
<g clip-path="url(#clip0_12_87)">
<path d="M92.0107 41.2805C96.4348 38.1938 99.2968 33.3291 99.2968 27.8628C99.2968 18.5561 91.0073 10.9846 80.8181 10.9846C73.5488 10.9846 67.2489 14.84 64.2339 20.4284C61.2189 14.84 54.9191 10.9846 47.6498 10.9846C37.4606 10.9846 29.1711 18.5561 29.1711 27.8628C29.1711 33.3288 32.0328 38.1938 36.4572 41.2805H13.9599V59.8162H17.0406V116H54.0874H57.876H70.5916H74.3803H111.427V59.816H114.508V41.2803H92.0107V41.2805ZM54.0874 112.539H20.8293V59.816H54.0871L54.0874 112.539ZM54.0874 56.3553H17.7486V44.7408H47.6496H54.0871L54.0874 56.3553ZM54.0874 41.2805H47.6498C39.5496 41.2805 32.9598 35.2614 32.9598 27.8628C32.9598 20.4642 39.5496 14.4451 47.6498 14.4451C55.7498 14.4451 62.3396 20.4642 62.3396 27.8628V41.2805H57.8763H54.0874ZM70.5916 56.3553V59.8158V112.539H57.876V59.8158V56.3553V44.7408H62.3394H66.128H70.5914V56.3553H70.5916ZM70.5916 41.2805H66.1283V27.8628C66.1283 20.4642 72.7181 14.4451 80.8181 14.4451C88.9183 14.4451 95.5081 20.4642 95.5081 27.8628C95.5081 35.2614 88.9183 41.2805 80.8181 41.2805H74.3805H70.5916ZM107.638 112.539H74.3805V59.816H107.638V112.539ZM110.719 56.3555H74.3803V44.741H80.8178H110.719V56.3555H110.719Z" fill="white"/>
<path d="M105.336 97.2566H101.548V101.094H105.336V97.2566Z" fill="white"/>
<path d="M101.547 103.425V107.625H94.3701V111.085H105.335V103.425H101.547Z" fill="white"/>
<path d="M26.7903 70.9353H23.0017V87.1562H26.7903V70.9353Z" fill="white"/>
<path d="M26.7903 62.9482H23.0017V68.6347H26.7903V62.9482Z" fill="white"/>
<path d="M114.757 22.8341L112.876 24.5521L110.976 22.8162L108.296 25.2633L112.876 29.4463L117.435 25.2812L114.757 22.8341Z" fill="white"/>
<path d="M17.9971 13.7606L16.1167 15.4784L14.2161 13.7429L11.5375 16.1898L16.1167 20.3724L20.6762 16.2075L17.9971 13.7606Z" fill="white"/>
<path d="M61.1024 0.0178984L59.2214 1.73569L57.3211 0L54.642 2.44687L59.2214 6.62989L63.7813 2.46477L61.1024 0.0178984Z" fill="white"/>
</g>
<defs>
<clipPath id="clip0_12_87">
<rect width="127" height="116" fill="white" transform="translate(0.986328)"/>
</clipPath>
</defs>
</svg>
