<svg width="144" height="139" viewBox="0 0 144 139" fill="none" xmlns="http://www.w3.org/2000/svg">
<g clip-path="url(#clip0_131_29)">
<path d="M74.1171 6.51196H69.8857V19.2242H74.1171V6.51196Z" fill="#01482A"/>
<path d="M90.2782 10.2173L84.7485 21.7544L88.5887 23.4685L94.1184 11.9314L90.2782 10.2173Z" fill="#01482A"/>
<path d="M53.7227 10.2172L49.8823 11.9314L55.412 23.4685L59.2524 21.7543L53.7227 10.2172Z" fill="#01482A"/>
<path d="M43.6874 46.8531L41.8979 50.5535L44.981 51.9419L46.7704 48.2415L43.6874 46.8531Z" fill="#01482A"/>
<path d="M48.6664 53.3455L46.877 57.0459L49.96 58.4343L51.7494 54.734L48.6664 53.3455Z" fill="#01482A"/>
<path d="M50.2533 68.6949L48.4639 72.3953L51.5469 73.7837L53.3363 70.0833L50.2533 68.6949Z" fill="#01482A"/>
<path d="M32.7587 71.0303L30.9692 74.7307L34.0522 76.1192L35.8417 72.4188L32.7587 71.0303Z" fill="#01482A"/>
<path d="M35.2684 84.9207L33.479 88.6211L36.562 90.0095L38.3514 86.3092L35.2684 84.9207Z" fill="#01482A"/>
<path d="M141.711 117.374L127.471 117.319L117.002 95.6705L119.979 91.6221C124.464 85.5207 125.215 77.5188 121.936 70.7396L100.927 27.2959L72.0001 40.3234L43.0739 27.2959L22.064 70.7396C18.7856 77.5191 19.5358 85.5207 24.0216 91.6221L26.9981 95.6702L16.5289 117.319L2.2903 117.374L0.5 121.076L27.6748 133.315L29.4645 129.613L20.3631 119.046L30.8323 97.3973L35.959 96.9987C43.6864 96.3979 50.5233 91.8135 53.802 85.0342L72.0001 47.4043L90.198 85.0339C93.4764 91.8132 100.313 96.3979 108.041 96.9984L113.168 97.3971L123.637 119.046L114.536 129.613L116.325 133.315L143.5 121.076L141.711 117.374ZM20.4781 125.567L11.2756 121.423L16.8897 121.401L20.4781 125.567ZM49.9683 83.307C47.332 88.7586 41.8341 92.4455 35.62 92.9285L30.4655 93.3293L27.4731 89.2594C23.8655 84.3531 23.2625 77.9183 25.8987 72.4665L41.3777 40.4596C41.5617 40.6571 41.7304 40.8668 41.9148 41.0965C42.6449 42.0059 43.554 43.1379 45.7615 44.1322C47.9694 45.1265 49.4522 45.0712 50.6434 45.0279C51.6019 44.9925 52.2943 44.9669 53.574 45.5435C54.8541 46.12 55.2786 46.6488 55.866 47.3801C56.5963 48.2895 57.5052 49.4215 59.7133 50.4161C61.9214 51.4101 63.4042 51.3559 64.5957 51.312C64.8965 51.3009 65.171 51.2931 65.4461 51.3023L49.9683 83.307ZM67.3132 47.4404C66.1416 47.1706 65.223 47.2024 64.4337 47.2315C63.4754 47.2663 62.7828 47.2922 61.5025 46.7157C60.2224 46.1391 59.7982 45.6103 59.2105 44.8791C58.4802 43.9697 57.5714 42.8376 55.3632 41.8433C53.1551 40.8488 51.672 40.9035 50.4814 40.9477C49.5228 40.9827 48.8302 41.0086 47.5507 40.4321C46.271 39.8555 45.8464 39.327 45.2588 38.5955C44.7751 37.9931 44.2103 37.2928 43.244 36.5999L45.1186 32.7232L69.1882 43.5635L67.3132 47.4404ZM77.8137 48.0213C77.6288 48.2512 77.4601 48.4612 77.2763 48.6587L74.8124 43.5635L98.8822 32.7232L101.345 37.8163C101.07 37.8254 100.796 37.8176 100.495 37.8066C99.3034 37.7621 97.8206 37.7076 95.6131 38.7022C93.4052 39.6968 92.4964 40.8286 91.766 41.738C91.1786 42.4697 90.7541 42.998 89.4747 43.5743C88.1949 44.1508 87.502 44.1249 86.5434 44.0899C85.3522 44.0451 83.8694 43.991 81.661 44.9858C79.4523 45.9804 78.5438 47.1116 77.8137 48.0213ZM113.535 93.3293L108.381 92.9285C102.167 92.4452 96.6688 88.7586 94.0322 83.307L79.1426 52.5184C80.1093 51.8252 80.674 51.1249 81.158 50.5225C81.7457 49.7908 82.1702 49.2625 83.4502 48.6859C84.7302 48.1091 85.4223 48.1347 86.3814 48.1703C87.5735 48.2145 89.0554 48.269 91.2638 47.2744C93.4714 46.2798 94.3802 45.1481 95.1106 44.2387C95.698 43.5069 96.1222 42.9786 97.4022 42.4021C98.682 41.8255 99.3744 41.8517 100.333 41.8865C101.122 41.9156 102.041 41.9474 103.212 41.6778L118.102 72.4667C120.738 77.9183 120.135 84.3531 116.528 89.2594L113.535 93.3293ZM123.522 125.567L127.111 121.401L132.725 121.423L123.522 125.567Z" fill="#01482A"/>
<path d="M104.97 58.082L101.887 59.4705L103.677 63.1708L106.76 61.7824L104.97 58.082Z" fill="#01482A"/>
<path d="M95.3423 49.1614L92.2593 50.5498L94.0487 54.2502L97.1317 52.8617L95.3423 49.1614Z" fill="#01482A"/>
<path d="M92.2114 60.8794L89.1284 62.2678L90.9179 65.9682L94.0009 64.5798L92.2114 60.8794Z" fill="#01482A"/>
<path d="M101.89 74.9724L98.8071 76.3608L100.597 80.0612L103.68 78.6728L101.89 74.9724Z" fill="#01482A"/>
<path d="M111.819 77.1648L108.736 78.5532L110.526 82.2536L113.609 80.8652L111.819 77.1648Z" fill="#01482A"/>
</g>
<defs>
<clipPath id="clip0_131_29">
<rect width="143" height="138" fill="white" transform="translate(0.5 0.913574)"/>
</clipPath>
</defs>
</svg>
